<svg width="128" height="128" viewBox="0 0 128 128" fill="none" xmlns="http://www.w3.org/2000/svg">
<path d="M68 84C79.0843 84 85.9343 88.4496 90.2205 94.0236C94.5439 99.646 96.3099 106.485 97.0241 111.272C97.404 113.819 95.3534 116 92.5876 116H44.2411C41.5343 116 39.497 113.903 39.7888 111.398C40.3439 106.63 41.8831 99.7582 46.0301 94.0997C50.1374 88.4953 56.8579 84 68 84Z" fill="#75D27D" stroke="#495066" stroke-width="2"/>
<path d="M90 95.5C72.0427 103.693 63.9578 104.477 46 96C48.5 91.8 53.5 85.5 66.5 85.5C81.3486 85.5 86 89.9 90 95.5Z" fill="#54C558"/>
<path d="M31.6556 10.31C40.8556 8.30998 47.4889 16.4766 49.6556 20.81L39.6556 75.3099C33.2556 81.3099 22.3222 84.4766 17.6556 85.3099C14.6556 85.9766 9.25557 86.3099 11.6556 82.3099C16.8555 71.9099 14.8222 63.3099 13.1556 60.3099C11.1556 53.9766 8.05556 39.1099 11.6556 30.3099C16.1556 19.3099 20.1556 12.81 31.6556 10.31Z" fill="#555E77" stroke="#495066" stroke-width="2" stroke-linecap="round"/>
<path d="M25.5 51.5001C29.5 49.5001 34.1667 50.6667 36 51.5001C36 51.5001 35.2816 56.9867 35.5 60.5C35.7092 63.8643 37 69 37 69C35.4 71 31.5 71 29.5 71C25.9 71 23.5 69.5 23.5 67V61V55C23.5 54.5 23.5 52.7 25.5 51.5001Z" fill="#8B91A6" stroke="#495066" stroke-width="2" stroke-linecap="round"/>
<path d="M109.5 51.1043C105.5 49.1043 100.833 50.271 99 51.1043C99 51.1043 99.7184 56.5909 99.5 60.1042C99.2908 63.4685 98 68.6042 98 68.6042C99.6 70.6042 103.5 70.6042 105.5 70.6042C109.1 70.6042 111.5 69.1042 111.5 66.6042V60.6042V54.6042C111.5 54.1042 111.5 52.3043 109.5 51.1043Z" fill="#8B91A6" stroke="#495066" stroke-width="2" stroke-linecap="round"/>
<path d="M66 17.5C37.5 17.5 29 42 29 50C34.6 50 36.3333 51.3333 36.5 52L63.5 34L99 52C99 50.4 103.333 49.3334 106 50C106 42.5 99 17.5 66 17.5Z" fill="#A8ADBB" stroke="#495066" stroke-width="2" stroke-linecap="round"/>
<path d="M68.5159 90.0001L68.5079 90H68.5C54.2326 90 46.1481 84.0849 41.7171 76.7932C37.3485 69.6041 36.4668 60.9623 36.9569 55.0271L53.3385 42.5H85.0654L98.4986 56.8927C98.404 70.3849 93.4323 78.64 87.3131 83.5314C81.0915 88.5047 73.5817 90.0805 68.5159 90.0001Z" fill="#F9DDCF" stroke="#495066" stroke-width="2"/>
<ellipse cx="68" cy="66.5" rx="4" ry="4.5" fill="#495066"/>
<path d="M58.8174 53.2947C50.564 54.2929 42.1717 54.1098 36.6088 53.6035C37.2075 49.2258 39.3041 43.0858 43.8188 37.8667C48.6551 32.2759 56.3036 27.6951 68.0167 27.4998C79.6866 27.3053 87.2285 32.1079 91.9627 38.154C96.4451 43.8786 98.4354 50.7572 98.9263 55.6536C95.6041 56.0078 92.2992 54.6455 89.3884 52.595C86.2331 50.3722 83.6889 47.4406 82.3269 45.4377L81.6613 44.4589L80.8075 45.2786C76.0587 49.8374 67.6402 52.2277 58.8174 53.2947Z" fill="#6E7790" stroke="#495066" stroke-width="2"/>
<path d="M55 52.7C46 53.5 43 53 37.6358 52.7C42 35.9999 52 31.3 60.5 29.3C54.5 41.7 55 49.2 55 52.7Z" fill="#555E77"/>
<path d="M55 54.7C45.5 55.2 44 55.2 37.5 54.7C37 76.5 49 86 59 87.9C53 75.5 55 58.2 55 54.7Z" fill="#F7CBBF"/>
<path d="M78 64.5C78 63 77.8001 60.5 81.0001 60.5C84.2001 60.5 84 63 84 64.5" stroke="#495066" stroke-width="3" stroke-linecap="round"/>
<path d="M51.0025 65C51.0024 63.5 50.8025 61 54.0025 61C57.2025 61 57.0024 63.5 57.0024 65" stroke="#495066" stroke-width="3" stroke-linecap="round"/>
<ellipse cx="54" cy="71" rx="6" ry="3" fill="#F2A2AC"/>
<ellipse cx="81" cy="71" rx="6" ry="3" fill="#F2A2AC"/>
<rect x="66" y="100" width="4" height="13" fill="#D9D9D9" stroke="#495066" stroke-width="2"/>
<rect x="62" y="84" width="12" height="20" rx="6" fill="#6E7790" stroke="#495066" stroke-width="2"/>
<rect x="60" y="114" width="16" height="4" rx="2" fill="#6E7790" stroke="#495066" stroke-width="2"/>
<path d="M100.653 29.1994C99.9864 30.1994 100.653 49.6994 100.653 49.6994C90.6531 48.4994 89.4864 54.866 90.1531 58.1993C90.6531 60.0327 93.1531 63.6993 99.1531 63.6993C105.153 63.6993 107.653 60.0327 108.153 58.1993V42.6993C108.153 39.8993 107.986 37.0327 108.153 36.1993C108.5 35 110 35 111.153 36.1993C112.153 37.239 115.5 40.5 117.5 42C120.5 43 123.106 40.1058 122.153 38.1993C118.653 31.1993 112.653 28.1994 107.653 27.1994C103.653 26.3994 101.32 28.1994 100.653 29.1994Z" fill="#F8F09A" stroke="#495066" stroke-width="2" stroke-linecap="round"/>
</svg>
